<svg width="415" height="54" viewBox="0 0 415 54" fill="none" xmlns="http://www.w3.org/2000/svg">
<path d="M59.2032 43L71.6232 11.14H78.8232L91.1082 43H84.1782L82.1982 37.555H68.1132L66.1332 43H59.2032ZM70.1832 31.75H80.1732L75.2232 17.98L70.1832 31.75ZM93.6254 43V19.285H99.2954L99.7004 22.12C100.3 21.22 100.975 20.545 101.725 20.095C102.475 19.615 103.255 19.3 104.065 19.15C104.875 18.97 105.7 18.88 106.54 18.88C106.93 18.88 107.29 18.895 107.62 18.925C107.95 18.925 108.19 18.925 108.34 18.925V25H106.855C105.445 25 104.215 25.24 103.165 25.72C102.115 26.2 101.305 26.95 100.735 27.97C100.195 28.99 99.9254 30.295 99.9254 31.885V43H93.6254ZM121.472 43.315C119.042 43.315 116.957 42.82 115.217 41.83C113.507 40.84 112.202 39.445 111.302 37.645C110.402 35.815 109.952 33.67 109.952 31.21C109.952 28.72 110.417 26.56 111.347 24.73C112.277 22.87 113.612 21.43 115.352 20.41C117.122 19.39 119.252 18.88 121.742 18.88C123.662 18.88 125.372 19.225 126.872 19.915C128.372 20.605 129.572 21.595 130.472 22.885C131.402 24.175 131.942 25.765 132.092 27.655H125.927C125.657 26.605 125.132 25.84 124.352 25.36C123.602 24.88 122.702 24.64 121.652 24.64C120.302 24.64 119.222 24.97 118.412 25.63C117.632 26.29 117.062 27.13 116.702 28.15C116.372 29.17 116.207 30.19 116.207 31.21C116.207 32.32 116.387 33.37 116.747 34.36C117.107 35.32 117.677 36.115 118.457 36.745C119.267 37.345 120.317 37.645 121.607 37.645C122.687 37.645 123.632 37.405 124.442 36.925C125.252 36.415 125.777 35.635 126.017 34.585H132.317C132.167 36.535 131.582 38.155 130.562 39.445C129.542 40.735 128.237 41.71 126.647 42.37C125.087 43 123.362 43.315 121.472 43.315ZM136.121 43V11.14H142.421V22.03C143.111 21.22 143.876 20.59 144.716 20.14C145.586 19.69 146.456 19.375 147.326 19.195C148.226 18.985 149.051 18.88 149.801 18.88C152.021 18.88 153.761 19.375 155.021 20.365C156.281 21.355 157.181 22.69 157.721 24.37C158.261 26.05 158.531 27.895 158.531 29.905V43H152.231V30.805C152.231 30.085 152.156 29.365 152.006 28.645C151.886 27.925 151.661 27.265 151.331 26.665C151.001 26.035 150.536 25.54 149.936 25.18C149.336 24.79 148.541 24.595 147.551 24.595C146.621 24.595 145.826 24.79 145.166 25.18C144.506 25.57 143.966 26.095 143.546 26.755C143.156 27.385 142.871 28.09 142.691 28.87C142.511 29.65 142.421 30.43 142.421 31.21V43H136.121ZM163.367 43V19.285H169.667V43H163.367ZM166.517 16.9C165.347 16.9 164.402 16.555 163.682 15.865C162.962 15.145 162.602 14.23 162.602 13.12C162.602 11.95 162.977 11.005 163.727 10.285C164.477 9.565 165.422 9.205 166.562 9.205C167.612 9.205 168.512 9.565 169.262 10.285C170.042 10.975 170.432 11.905 170.432 13.075C170.432 14.215 170.057 15.145 169.307 15.865C168.587 16.555 167.657 16.9 166.517 16.9ZM189.151 43.36C185.881 43.36 183.091 42.7 180.781 41.38C178.501 40.03 176.761 38.14 175.561 35.71C174.391 33.28 173.806 30.445 173.806 27.205C173.806 23.905 174.406 21.025 175.606 18.565C176.836 16.105 178.591 14.2 180.871 12.85C183.151 11.47 185.896 10.78 189.106 10.78C191.536 10.78 193.711 11.2 195.631 12.04C197.551 12.85 199.096 14.065 200.266 15.685C201.466 17.275 202.216 19.24 202.516 21.58H196.306C195.916 20.11 195.121 18.955 193.921 18.115C192.751 17.245 191.191 16.81 189.241 16.81C187.081 16.81 185.356 17.305 184.066 18.295C182.806 19.255 181.891 20.515 181.321 22.075C180.751 23.605 180.466 25.225 180.466 26.935C180.466 28.705 180.766 30.385 181.366 31.975C181.966 33.565 182.911 34.855 184.201 35.845C185.521 36.835 187.246 37.33 189.376 37.33C190.636 37.33 191.761 37.15 192.751 36.79C193.741 36.4 194.551 35.845 195.181 35.125C195.841 34.405 196.291 33.55 196.531 32.56H202.966C202.696 34.87 201.916 36.835 200.626 38.455C199.336 40.075 197.701 41.305 195.721 42.145C193.741 42.955 191.551 43.36 189.151 43.36ZM217.855 43.315C215.455 43.315 213.355 42.835 211.555 41.875C209.755 40.885 208.36 39.49 207.37 37.69C206.38 35.86 205.885 33.7 205.885 31.21C205.885 28.66 206.38 26.47 207.37 24.64C208.39 22.78 209.8 21.355 211.6 20.365C213.4 19.375 215.47 18.88 217.81 18.88C220.21 18.88 222.295 19.39 224.065 20.41C225.835 21.43 227.215 22.855 228.205 24.685C229.195 26.515 229.69 28.705 229.69 31.255C229.69 33.745 229.195 35.905 228.205 37.735C227.245 39.535 225.88 40.915 224.11 41.875C222.37 42.835 220.285 43.315 217.855 43.315ZM217.765 37.555C219.145 37.555 220.255 37.255 221.095 36.655C221.935 36.055 222.535 35.275 222.895 34.315C223.285 33.325 223.48 32.29 223.48 31.21C223.48 30.13 223.285 29.095 222.895 28.105C222.535 27.115 221.935 26.305 221.095 25.675C220.285 25.015 219.175 24.685 217.765 24.685C216.415 24.685 215.32 25.015 214.48 25.675C213.64 26.305 213.025 27.115 212.635 28.105C212.275 29.095 212.095 30.13 212.095 31.21C212.095 32.32 212.275 33.355 212.635 34.315C213.025 35.275 213.64 36.055 214.48 36.655C215.32 37.255 216.415 37.555 217.765 37.555ZM243.488 43.315C241.088 43.315 239.093 42.775 237.503 41.695C235.943 40.585 234.773 39.115 233.993 37.285C233.213 35.425 232.823 33.37 232.823 31.12C232.823 28.75 233.243 26.65 234.083 24.82C234.923 22.96 236.168 21.505 237.818 20.455C239.468 19.405 241.523 18.88 243.983 18.88C244.823 18.88 245.648 18.985 246.458 19.195C247.298 19.375 248.063 19.66 248.753 20.05C249.473 20.41 250.088 20.89 250.598 21.49V11.14H256.898V43H250.778L250.688 40.345C250.148 41.035 249.488 41.605 248.708 42.055C247.958 42.475 247.148 42.79 246.278 43C245.408 43.21 244.478 43.315 243.488 43.315ZM244.748 37.645C246.098 37.645 247.193 37.33 248.033 36.7C248.903 36.07 249.548 35.26 249.968 34.27C250.388 33.28 250.598 32.215 250.598 31.075C250.598 29.905 250.388 28.84 249.968 27.88C249.578 26.89 248.948 26.11 248.078 25.54C247.238 24.94 246.128 24.64 244.748 24.64C243.368 24.64 242.258 24.955 241.418 25.585C240.578 26.215 239.978 27.04 239.618 28.06C239.288 29.05 239.123 30.115 239.123 31.255C239.123 32.095 239.213 32.905 239.393 33.685C239.603 34.435 239.933 35.11 240.383 35.71C240.833 36.31 241.418 36.79 242.138 37.15C242.858 37.48 243.728 37.645 244.748 37.645ZM272.693 43.315C270.203 43.315 268.088 42.82 266.348 41.83C264.608 40.84 263.273 39.445 262.343 37.645C261.413 35.815 260.948 33.685 260.948 31.255C260.948 28.795 261.428 26.65 262.388 24.82C263.348 22.96 264.698 21.505 266.438 20.455C268.208 19.405 270.293 18.88 272.693 18.88C274.493 18.88 276.068 19.18 277.418 19.78C278.798 20.38 279.953 21.22 280.883 22.3C281.843 23.38 282.548 24.64 282.998 26.08C283.478 27.49 283.703 29.02 283.673 30.67C283.673 31.09 283.658 31.495 283.628 31.885C283.598 32.275 283.538 32.665 283.448 33.055H267.203C267.293 33.955 267.548 34.78 267.968 35.53C268.388 36.28 268.973 36.88 269.723 37.33C270.503 37.75 271.463 37.96 272.603 37.96C273.353 37.96 274.043 37.885 274.673 37.735C275.303 37.555 275.843 37.285 276.293 36.925C276.743 36.565 277.058 36.145 277.238 35.665H283.448C283.058 37.435 282.323 38.89 281.243 40.03C280.193 41.17 278.918 42.01 277.418 42.55C275.918 43.06 274.343 43.315 272.693 43.315ZM267.338 28.645H277.643C277.613 27.835 277.403 27.085 277.013 26.395C276.653 25.675 276.098 25.105 275.348 24.685C274.628 24.235 273.698 24.01 272.558 24.01C271.418 24.01 270.458 24.235 269.678 24.685C268.928 25.135 268.358 25.72 267.968 26.44C267.608 27.13 267.398 27.865 267.338 28.645ZM302.177 43.36C298.937 43.36 296.177 42.685 293.897 41.335C291.617 39.955 289.877 38.05 288.677 35.62C287.477 33.16 286.877 30.295 286.877 27.025C286.877 24.595 287.207 22.39 287.867 20.41C288.557 18.4 289.547 16.675 290.837 15.235C292.157 13.795 293.762 12.7 295.652 11.95C297.542 11.17 299.687 10.78 302.087 10.78C304.517 10.78 306.692 11.17 308.612 11.95C310.532 12.73 312.122 13.9 313.382 15.46C314.672 16.99 315.512 18.91 315.902 21.22H309.377C309.137 20.23 308.702 19.42 308.072 18.79C307.442 18.13 306.647 17.635 305.687 17.305C304.757 16.975 303.692 16.81 302.492 16.81C300.842 16.81 299.447 17.095 298.307 17.665C297.167 18.235 296.237 19.015 295.517 20.005C294.827 20.965 294.317 22.075 293.987 23.335C293.687 24.565 293.537 25.84 293.537 27.16C293.537 28.96 293.837 30.64 294.437 32.2C295.037 33.73 295.982 34.975 297.272 35.935C298.562 36.865 300.272 37.33 302.402 37.33C303.812 37.33 305.057 37.12 306.137 36.7C307.247 36.25 308.132 35.59 308.792 34.72C309.482 33.82 309.872 32.74 309.962 31.48H301.277V25.945H316.577V27.7C316.577 30.94 316.037 33.73 314.957 36.07C313.877 38.41 312.272 40.21 310.142 41.47C308.012 42.73 305.357 43.36 302.177 43.36ZM331.446 43.315C327.966 43.315 325.281 42.43 323.391 40.66C321.531 38.86 320.601 36.16 320.601 32.56V19.285H326.901V32.11C326.901 33.19 327.051 34.15 327.351 34.99C327.681 35.8 328.176 36.445 328.836 36.925C329.526 37.405 330.411 37.645 331.491 37.645C332.661 37.645 333.561 37.39 334.191 36.88C334.821 36.37 335.256 35.695 335.496 34.855C335.736 33.985 335.856 33.07 335.856 32.11V19.285H342.111V32.56C342.111 36.31 341.166 39.04 339.276 40.75C337.416 42.46 334.806 43.315 331.446 43.315ZM347.014 43V19.285H353.314V43H347.014ZM350.164 16.9C348.994 16.9 348.049 16.555 347.329 15.865C346.609 15.145 346.249 14.23 346.249 13.12C346.249 11.95 346.624 11.005 347.374 10.285C348.124 9.565 349.069 9.205 350.209 9.205C351.259 9.205 352.159 9.565 352.909 10.285C353.689 10.975 354.079 11.905 354.079 13.075C354.079 14.215 353.704 15.145 352.954 15.865C352.234 16.555 351.304 16.9 350.164 16.9ZM368.073 43.315C365.673 43.315 363.678 42.775 362.088 41.695C360.528 40.585 359.358 39.115 358.578 37.285C357.798 35.425 357.408 33.37 357.408 31.12C357.408 28.75 357.828 26.65 358.668 24.82C359.508 22.96 360.753 21.505 362.403 20.455C364.053 19.405 366.108 18.88 368.568 18.88C369.408 18.88 370.233 18.985 371.043 19.195C371.883 19.375 372.648 19.66 373.338 20.05C374.058 20.41 374.673 20.89 375.183 21.49V11.14H381.483V43H375.363L375.273 40.345C374.733 41.035 374.073 41.605 373.293 42.055C372.543 42.475 371.733 42.79 370.863 43C369.993 43.21 369.063 43.315 368.073 43.315ZM369.333 37.645C370.683 37.645 371.778 37.33 372.618 36.7C373.488 36.07 374.133 35.26 374.553 34.27C374.973 33.28 375.183 32.215 375.183 31.075C375.183 29.905 374.973 28.84 374.553 27.88C374.163 26.89 373.533 26.11 372.663 25.54C371.823 24.94 370.713 24.64 369.333 24.64C367.953 24.64 366.843 24.955 366.003 25.585C365.163 26.215 364.563 27.04 364.203 28.06C363.873 29.05 363.708 30.115 363.708 31.255C363.708 32.095 363.798 32.905 363.978 33.685C364.188 34.435 364.518 35.11 364.968 35.71C365.418 36.31 366.003 36.79 366.723 37.15C367.443 37.48 368.313 37.645 369.333 37.645ZM397.278 43.315C394.788 43.315 392.673 42.82 390.933 41.83C389.193 40.84 387.858 39.445 386.928 37.645C385.998 35.815 385.533 33.685 385.533 31.255C385.533 28.795 386.013 26.65 386.973 24.82C387.933 22.96 389.283 21.505 391.023 20.455C392.793 19.405 394.878 18.88 397.278 18.88C399.078 18.88 400.653 19.18 402.003 19.78C403.383 20.38 404.538 21.22 405.468 22.3C406.428 23.38 407.133 24.64 407.583 26.08C408.063 27.49 408.288 29.02 408.258 30.67C408.258 31.09 408.243 31.495 408.213 31.885C408.183 32.275 408.123 32.665 408.033 33.055H391.788C391.878 33.955 392.133 34.78 392.553 35.53C392.973 36.28 393.558 36.88 394.308 37.33C395.088 37.75 396.048 37.96 397.188 37.96C397.938 37.96 398.628 37.885 399.258 37.735C399.888 37.555 400.428 37.285 400.878 36.925C401.328 36.565 401.643 36.145 401.823 35.665H408.033C407.643 37.435 406.908 38.89 405.828 40.03C404.778 41.17 403.503 42.01 402.003 42.55C400.503 43.06 398.928 43.315 397.278 43.315ZM391.923 28.645H402.228C402.198 27.835 401.988 27.085 401.598 26.395C401.238 25.675 400.683 25.105 399.933 24.685C399.213 24.235 398.283 24.01 397.143 24.01C396.003 24.01 395.043 24.235 394.263 24.685C393.513 25.135 392.943 25.72 392.553 26.44C392.193 27.13 391.983 27.865 391.923 28.645Z" fill="#425713"/>
<path d="M3.41935 30.6625L5.92312 37.9546C7.14808 41.5223 11.0333 43.4214 14.6009 42.1965L21.8931 39.6927C25.4607 38.4677 27.3599 34.5825 26.1349 31.0149L23.6311 23.7227C22.4062 20.1551 18.521 18.2559 14.9533 19.4809L7.66119 21.9847C4.09352 23.2096 2.19439 27.0948 3.41935 30.6625Z" stroke="url(#paint0_linear_12_27)" stroke-width="6" stroke-miterlimit="10"/>
<path d="M16.0749 4.89485L9.91334 9.52947C6.89883 11.7969 6.29323 16.0788 8.56071 19.0934L13.1953 25.2549C15.4628 28.2694 19.7447 28.875 22.7592 26.6075L28.9208 21.9729C31.9353 19.7054 32.5409 15.4235 30.2734 12.409L25.6388 6.24748C23.3713 3.23296 19.0894 2.62737 16.0749 4.89485Z" stroke="url(#paint1_linear_12_27)" stroke-width="6" stroke-miterlimit="10"/>
<path d="M44.4791 8.96375L38.1673 4.53596C35.0793 2.36968 30.8198 3.11691 28.6535 6.20494L24.2257 12.5167C22.0594 15.6048 22.8067 19.8643 25.8947 22.0305L32.2065 26.4583C35.2946 28.6246 39.554 27.8774 41.7203 24.7893L46.1481 18.4775C48.3144 15.3895 47.5672 11.13 44.4791 8.96375Z" stroke="url(#paint2_linear_12_27)" stroke-width="6" stroke-miterlimit="10"/>
<path d="M49.3994 37.2377L51.66 29.8665C52.766 26.2602 50.7391 22.4401 47.1328 21.3341L39.7616 19.0735C36.1553 17.9675 32.3352 19.9944 31.2292 23.6007L28.9686 30.9719C27.8626 34.5782 29.8895 38.3983 33.4958 39.5043L40.867 41.7649C44.4733 42.8709 48.2934 40.844 49.3994 37.2377Z" stroke="url(#paint3_linear_12_27)" stroke-width="6" stroke-miterlimit="10"/>
<path d="M24.0199 50.6407L31.7288 50.5129C35.5004 50.4503 38.5072 47.3422 38.4446 43.5706L38.3168 35.8616C38.2542 32.09 35.1461 29.0833 31.3745 29.1458L23.6655 29.2736C19.894 29.3362 16.8872 32.4444 16.9497 36.2159L17.0776 43.9249C17.1401 47.6965 20.2483 50.7032 24.0199 50.6407Z" stroke="url(#paint4_linear_12_27)" stroke-width="6" stroke-miterlimit="10"/>
<defs>
<linearGradient id="paint0_linear_12_27" x1="4.67124" y1="34.3086" x2="24.883" y2="27.3688" gradientUnits="userSpaceOnUse">
<stop stop-color="#88AE30"/>
<stop offset="1" stop-color="#67D8AB"/>
</linearGradient>
<linearGradient id="paint1_linear_12_27" x1="12.9941" y1="7.21216" x2="25.84" y2="24.2902" gradientUnits="userSpaceOnUse">
<stop stop-color="#88AE30"/>
<stop offset="1" stop-color="#67D8AB"/>
</linearGradient>
<linearGradient id="paint2_linear_12_27" x1="41.3232" y1="6.74986" x2="29.0506" y2="24.2444" gradientUnits="userSpaceOnUse">
<stop stop-color="#88AE30"/>
<stop offset="1" stop-color="#67D8AB"/>
</linearGradient>
<linearGradient id="paint3_linear_12_27" x1="50.5297" y1="33.5521" x2="30.0989" y2="27.2863" gradientUnits="userSpaceOnUse">
<stop stop-color="#88AE30"/>
<stop offset="1" stop-color="#67D8AB"/>
</linearGradient>
<linearGradient id="paint4_linear_12_27" x1="27.8743" y1="50.5768" x2="27.52" y2="29.2097" gradientUnits="userSpaceOnUse">
<stop stop-color="#88AE30"/>
<stop offset="1" stop-color="#67D8AB"/>
</linearGradient>
</defs>
</svg>
