<svg width="416" height="54" viewBox="0 0 416 54" fill="none" xmlns="http://www.w3.org/2000/svg">
<path d="M60.0018 43L72.4218 11.14H79.6218L91.9068 43H84.9768L82.9968 37.555H68.9118L66.9318 43H60.0018ZM70.9818 31.75H80.9718L76.0218 17.98L70.9818 31.75ZM94.424 43V19.285H100.094L100.499 22.12C101.099 21.22 101.774 20.545 102.524 20.095C103.274 19.615 104.054 19.3 104.864 19.15C105.674 18.97 106.499 18.88 107.339 18.88C107.729 18.88 108.089 18.895 108.419 18.925C108.749 18.925 108.989 18.925 109.139 18.925V25H107.654C106.244 25 105.014 25.24 103.964 25.72C102.914 26.2 102.104 26.95 101.534 27.97C100.994 28.99 100.724 30.295 100.724 31.885V43H94.424ZM122.271 43.315C119.841 43.315 117.756 42.82 116.016 41.83C114.306 40.84 113.001 39.445 112.101 37.645C111.201 35.815 110.751 33.67 110.751 31.21C110.751 28.72 111.216 26.56 112.146 24.73C113.076 22.87 114.411 21.43 116.151 20.41C117.921 19.39 120.051 18.88 122.541 18.88C124.461 18.88 126.171 19.225 127.671 19.915C129.171 20.605 130.371 21.595 131.271 22.885C132.201 24.175 132.741 25.765 132.891 27.655H126.726C126.456 26.605 125.931 25.84 125.151 25.36C124.401 24.88 123.501 24.64 122.451 24.64C121.101 24.64 120.021 24.97 119.211 25.63C118.431 26.29 117.861 27.13 117.501 28.15C117.171 29.17 117.006 30.19 117.006 31.21C117.006 32.32 117.186 33.37 117.546 34.36C117.906 35.32 118.476 36.115 119.256 36.745C120.066 37.345 121.116 37.645 122.406 37.645C123.486 37.645 124.431 37.405 125.241 36.925C126.051 36.415 126.576 35.635 126.816 34.585H133.116C132.966 36.535 132.381 38.155 131.361 39.445C130.341 40.735 129.036 41.71 127.446 42.37C125.886 43 124.161 43.315 122.271 43.315ZM136.919 43V11.14H143.219V22.03C143.909 21.22 144.674 20.59 145.514 20.14C146.384 19.69 147.254 19.375 148.124 19.195C149.024 18.985 149.849 18.88 150.599 18.88C152.819 18.88 154.559 19.375 155.819 20.365C157.079 21.355 157.979 22.69 158.519 24.37C159.059 26.05 159.329 27.895 159.329 29.905V43H153.029V30.805C153.029 30.085 152.954 29.365 152.804 28.645C152.684 27.925 152.459 27.265 152.129 26.665C151.799 26.035 151.334 25.54 150.734 25.18C150.134 24.79 149.339 24.595 148.349 24.595C147.419 24.595 146.624 24.79 145.964 25.18C145.304 25.57 144.764 26.095 144.344 26.755C143.954 27.385 143.669 28.09 143.489 28.87C143.309 29.65 143.219 30.43 143.219 31.21V43H136.919ZM164.165 43V19.285H170.465V43H164.165ZM167.315 16.9C166.145 16.9 165.2 16.555 164.48 15.865C163.76 15.145 163.4 14.23 163.4 13.12C163.4 11.95 163.775 11.005 164.525 10.285C165.275 9.565 166.22 9.205 167.36 9.205C168.41 9.205 169.31 9.565 170.06 10.285C170.84 10.975 171.23 11.905 171.23 13.075C171.23 14.215 170.855 15.145 170.105 15.865C169.385 16.555 168.455 16.9 167.315 16.9ZM189.949 43.36C186.679 43.36 183.889 42.7 181.579 41.38C179.299 40.03 177.559 38.14 176.359 35.71C175.189 33.28 174.604 30.445 174.604 27.205C174.604 23.905 175.204 21.025 176.404 18.565C177.634 16.105 179.389 14.2 181.669 12.85C183.949 11.47 186.694 10.78 189.904 10.78C192.334 10.78 194.509 11.2 196.429 12.04C198.349 12.85 199.894 14.065 201.064 15.685C202.264 17.275 203.014 19.24 203.314 21.58H197.104C196.714 20.11 195.919 18.955 194.719 18.115C193.549 17.245 191.989 16.81 190.039 16.81C187.879 16.81 186.154 17.305 184.864 18.295C183.604 19.255 182.689 20.515 182.119 22.075C181.549 23.605 181.264 25.225 181.264 26.935C181.264 28.705 181.564 30.385 182.164 31.975C182.764 33.565 183.709 34.855 184.999 35.845C186.319 36.835 188.044 37.33 190.174 37.33C191.434 37.33 192.559 37.15 193.549 36.79C194.539 36.4 195.349 35.845 195.979 35.125C196.639 34.405 197.089 33.55 197.329 32.56H203.764C203.494 34.87 202.714 36.835 201.424 38.455C200.134 40.075 198.499 41.305 196.519 42.145C194.539 42.955 192.349 43.36 189.949 43.36ZM218.653 43.315C216.253 43.315 214.153 42.835 212.353 41.875C210.553 40.885 209.158 39.49 208.168 37.69C207.178 35.86 206.683 33.7 206.683 31.21C206.683 28.66 207.178 26.47 208.168 24.64C209.188 22.78 210.598 21.355 212.398 20.365C214.198 19.375 216.268 18.88 218.608 18.88C221.008 18.88 223.093 19.39 224.863 20.41C226.633 21.43 228.013 22.855 229.003 24.685C229.993 26.515 230.488 28.705 230.488 31.255C230.488 33.745 229.993 35.905 229.003 37.735C228.043 39.535 226.678 40.915 224.908 41.875C223.168 42.835 221.083 43.315 218.653 43.315ZM218.563 37.555C219.943 37.555 221.053 37.255 221.893 36.655C222.733 36.055 223.333 35.275 223.693 34.315C224.083 33.325 224.278 32.29 224.278 31.21C224.278 30.13 224.083 29.095 223.693 28.105C223.333 27.115 222.733 26.305 221.893 25.675C221.083 25.015 219.973 24.685 218.563 24.685C217.213 24.685 216.118 25.015 215.278 25.675C214.438 26.305 213.823 27.115 213.433 28.105C213.073 29.095 212.893 30.13 212.893 31.21C212.893 32.32 213.073 33.355 213.433 34.315C213.823 35.275 214.438 36.055 215.278 36.655C216.118 37.255 217.213 37.555 218.563 37.555ZM244.287 43.315C241.887 43.315 239.892 42.775 238.302 41.695C236.742 40.585 235.572 39.115 234.792 37.285C234.012 35.425 233.622 33.37 233.622 31.12C233.622 28.75 234.042 26.65 234.882 24.82C235.722 22.96 236.967 21.505 238.617 20.455C240.267 19.405 242.322 18.88 244.782 18.88C245.622 18.88 246.447 18.985 247.257 19.195C248.097 19.375 248.862 19.66 249.552 20.05C250.272 20.41 250.887 20.89 251.397 21.49V11.14H257.697V43H251.577L251.487 40.345C250.947 41.035 250.287 41.605 249.507 42.055C248.757 42.475 247.947 42.79 247.077 43C246.207 43.21 245.277 43.315 244.287 43.315ZM245.547 37.645C246.897 37.645 247.992 37.33 248.832 36.7C249.702 36.07 250.347 35.26 250.767 34.27C251.187 33.28 251.397 32.215 251.397 31.075C251.397 29.905 251.187 28.84 250.767 27.88C250.377 26.89 249.747 26.11 248.877 25.54C248.037 24.94 246.927 24.64 245.547 24.64C244.167 24.64 243.057 24.955 242.217 25.585C241.377 26.215 240.777 27.04 240.417 28.06C240.087 29.05 239.922 30.115 239.922 31.255C239.922 32.095 240.012 32.905 240.192 33.685C240.402 34.435 240.732 35.11 241.182 35.71C241.632 36.31 242.217 36.79 242.937 37.15C243.657 37.48 244.527 37.645 245.547 37.645ZM273.492 43.315C271.002 43.315 268.887 42.82 267.147 41.83C265.407 40.84 264.072 39.445 263.142 37.645C262.212 35.815 261.747 33.685 261.747 31.255C261.747 28.795 262.227 26.65 263.187 24.82C264.147 22.96 265.497 21.505 267.237 20.455C269.007 19.405 271.092 18.88 273.492 18.88C275.292 18.88 276.867 19.18 278.217 19.78C279.597 20.38 280.752 21.22 281.682 22.3C282.642 23.38 283.347 24.64 283.797 26.08C284.277 27.49 284.502 29.02 284.472 30.67C284.472 31.09 284.457 31.495 284.427 31.885C284.397 32.275 284.337 32.665 284.247 33.055H268.002C268.092 33.955 268.347 34.78 268.767 35.53C269.187 36.28 269.772 36.88 270.522 37.33C271.302 37.75 272.262 37.96 273.402 37.96C274.152 37.96 274.842 37.885 275.472 37.735C276.102 37.555 276.642 37.285 277.092 36.925C277.542 36.565 277.857 36.145 278.037 35.665H284.247C283.857 37.435 283.122 38.89 282.042 40.03C280.992 41.17 279.717 42.01 278.217 42.55C276.717 43.06 275.142 43.315 273.492 43.315ZM268.137 28.645H278.442C278.412 27.835 278.202 27.085 277.812 26.395C277.452 25.675 276.897 25.105 276.147 24.685C275.427 24.235 274.497 24.01 273.357 24.01C272.217 24.01 271.257 24.235 270.477 24.685C269.727 25.135 269.157 25.72 268.767 26.44C268.407 27.13 268.197 27.865 268.137 28.645ZM302.975 43.36C299.735 43.36 296.975 42.685 294.695 41.335C292.415 39.955 290.675 38.05 289.475 35.62C288.275 33.16 287.675 30.295 287.675 27.025C287.675 24.595 288.005 22.39 288.665 20.41C289.355 18.4 290.345 16.675 291.635 15.235C292.955 13.795 294.56 12.7 296.45 11.95C298.34 11.17 300.485 10.78 302.885 10.78C305.315 10.78 307.49 11.17 309.41 11.95C311.33 12.73 312.92 13.9 314.18 15.46C315.47 16.99 316.31 18.91 316.7 21.22H310.175C309.935 20.23 309.5 19.42 308.87 18.79C308.24 18.13 307.445 17.635 306.485 17.305C305.555 16.975 304.49 16.81 303.29 16.81C301.64 16.81 300.245 17.095 299.105 17.665C297.965 18.235 297.035 19.015 296.315 20.005C295.625 20.965 295.115 22.075 294.785 23.335C294.485 24.565 294.335 25.84 294.335 27.16C294.335 28.96 294.635 30.64 295.235 32.2C295.835 33.73 296.78 34.975 298.07 35.935C299.36 36.865 301.07 37.33 303.2 37.33C304.61 37.33 305.855 37.12 306.935 36.7C308.045 36.25 308.93 35.59 309.59 34.72C310.28 33.82 310.67 32.74 310.76 31.48H302.075V25.945H317.375V27.7C317.375 30.94 316.835 33.73 315.755 36.07C314.675 38.41 313.07 40.21 310.94 41.47C308.81 42.73 306.155 43.36 302.975 43.36ZM332.244 43.315C328.764 43.315 326.079 42.43 324.189 40.66C322.329 38.86 321.399 36.16 321.399 32.56V19.285H327.699V32.11C327.699 33.19 327.849 34.15 328.149 34.99C328.479 35.8 328.974 36.445 329.634 36.925C330.324 37.405 331.209 37.645 332.289 37.645C333.459 37.645 334.359 37.39 334.989 36.88C335.619 36.37 336.054 35.695 336.294 34.855C336.534 33.985 336.654 33.07 336.654 32.11V19.285H342.909V32.56C342.909 36.31 341.964 39.04 340.074 40.75C338.214 42.46 335.604 43.315 332.244 43.315ZM347.813 43V19.285H354.113V43H347.813ZM350.963 16.9C349.793 16.9 348.848 16.555 348.128 15.865C347.408 15.145 347.048 14.23 347.048 13.12C347.048 11.95 347.423 11.005 348.173 10.285C348.923 9.565 349.868 9.205 351.008 9.205C352.058 9.205 352.958 9.565 353.708 10.285C354.488 10.975 354.878 11.905 354.878 13.075C354.878 14.215 354.503 15.145 353.753 15.865C353.033 16.555 352.103 16.9 350.963 16.9ZM368.872 43.315C366.472 43.315 364.477 42.775 362.887 41.695C361.327 40.585 360.157 39.115 359.377 37.285C358.597 35.425 358.207 33.37 358.207 31.12C358.207 28.75 358.627 26.65 359.467 24.82C360.307 22.96 361.552 21.505 363.202 20.455C364.852 19.405 366.907 18.88 369.367 18.88C370.207 18.88 371.032 18.985 371.842 19.195C372.682 19.375 373.447 19.66 374.137 20.05C374.857 20.41 375.472 20.89 375.982 21.49V11.14H382.282V43H376.162L376.072 40.345C375.532 41.035 374.872 41.605 374.092 42.055C373.342 42.475 372.532 42.79 371.662 43C370.792 43.21 369.862 43.315 368.872 43.315ZM370.132 37.645C371.482 37.645 372.577 37.33 373.417 36.7C374.287 36.07 374.932 35.26 375.352 34.27C375.772 33.28 375.982 32.215 375.982 31.075C375.982 29.905 375.772 28.84 375.352 27.88C374.962 26.89 374.332 26.11 373.462 25.54C372.622 24.94 371.512 24.64 370.132 24.64C368.752 24.64 367.642 24.955 366.802 25.585C365.962 26.215 365.362 27.04 365.002 28.06C364.672 29.05 364.507 30.115 364.507 31.255C364.507 32.095 364.597 32.905 364.777 33.685C364.987 34.435 365.317 35.11 365.767 35.71C366.217 36.31 366.802 36.79 367.522 37.15C368.242 37.48 369.112 37.645 370.132 37.645ZM398.077 43.315C395.587 43.315 393.472 42.82 391.732 41.83C389.992 40.84 388.657 39.445 387.727 37.645C386.797 35.815 386.332 33.685 386.332 31.255C386.332 28.795 386.812 26.65 387.772 24.82C388.732 22.96 390.082 21.505 391.822 20.455C393.592 19.405 395.677 18.88 398.077 18.88C399.877 18.88 401.452 19.18 402.802 19.78C404.182 20.38 405.337 21.22 406.267 22.3C407.227 23.38 407.932 24.64 408.382 26.08C408.862 27.49 409.087 29.02 409.057 30.67C409.057 31.09 409.042 31.495 409.012 31.885C408.982 32.275 408.922 32.665 408.832 33.055H392.587C392.677 33.955 392.932 34.78 393.352 35.53C393.772 36.28 394.357 36.88 395.107 37.33C395.887 37.75 396.847 37.96 397.987 37.96C398.737 37.96 399.427 37.885 400.057 37.735C400.687 37.555 401.227 37.285 401.677 36.925C402.127 36.565 402.442 36.145 402.622 35.665H408.832C408.442 37.435 407.707 38.89 406.627 40.03C405.577 41.17 404.302 42.01 402.802 42.55C401.302 43.06 399.727 43.315 398.077 43.315ZM392.722 28.645H403.027C402.997 27.835 402.787 27.085 402.397 26.395C402.037 25.675 401.482 25.105 400.732 24.685C400.012 24.235 399.082 24.01 397.942 24.01C396.802 24.01 395.842 24.235 395.062 24.685C394.312 25.135 393.742 25.72 393.352 26.44C392.992 27.13 392.782 27.865 392.722 28.645Z" fill="#8FEBC6"/>
<path d="M4.21794 30.6625L6.7217 37.9546C7.94667 41.5223 11.8319 43.4214 15.3995 42.1965L22.6917 39.6927C26.2593 38.4677 28.1585 34.5825 26.9335 31.0149L24.4297 23.7227C23.2048 20.1551 19.3196 18.2559 15.7519 19.4809L8.45977 21.9847C4.89211 23.2096 2.99297 27.0948 4.21794 30.6625Z" stroke="url(#paint0_linear_13_97)" stroke-width="6" stroke-miterlimit="10"/>
<path d="M16.8735 4.89485L10.7119 9.52947C7.69741 11.7969 7.09182 16.0788 9.3593 19.0934L13.9939 25.2549C16.2614 28.2694 20.5433 28.875 23.5578 26.6075L29.7193 21.9729C32.7339 19.7054 33.3395 15.4235 31.072 12.409L26.4374 6.24748C24.1699 3.23296 19.888 2.62737 16.8735 4.89485Z" stroke="url(#paint1_linear_13_97)" stroke-width="6" stroke-miterlimit="10"/>
<path d="M45.2777 8.96375L38.9659 4.53596C35.8779 2.36968 31.6184 3.11691 29.4521 6.20494L25.0243 12.5167C22.858 15.6048 23.6053 19.8643 26.6933 22.0305L33.0051 26.4583C36.0931 28.6246 40.3526 27.8774 42.5189 24.7893L46.9467 18.4775C49.113 15.3895 48.3657 11.13 45.2777 8.96375Z" stroke="url(#paint2_linear_13_97)" stroke-width="6" stroke-miterlimit="10"/>
<path d="M50.198 37.2377L52.4586 29.8665C53.5646 26.2602 51.5377 22.4401 47.9314 21.3341L40.5602 19.0735C36.9539 17.9675 33.1338 19.9944 32.0278 23.6007L29.7672 30.9719C28.6612 34.5782 30.6881 38.3983 34.2944 39.5043L41.6656 41.7649C45.2719 42.8709 49.092 40.844 50.198 37.2377Z" stroke="url(#paint3_linear_13_97)" stroke-width="6" stroke-miterlimit="10"/>
<path d="M24.8184 50.6407L32.5274 50.5129C36.299 50.4503 39.3057 47.3422 39.2432 43.5706L39.1154 35.8616C39.0528 32.09 35.9447 29.0833 32.1731 29.1458L24.4641 29.2736C20.6925 29.3362 17.6858 32.4444 17.7483 36.2159L17.8761 43.9249C17.9387 47.6965 21.0469 50.7032 24.8184 50.6407Z" stroke="url(#paint4_linear_13_97)" stroke-width="6" stroke-miterlimit="10"/>
<defs>
<linearGradient id="paint0_linear_13_97" x1="5.46982" y1="34.3086" x2="25.6816" y2="27.3688" gradientUnits="userSpaceOnUse">
<stop stop-color="#88AE30"/>
<stop offset="1" stop-color="#67D8AB"/>
</linearGradient>
<linearGradient id="paint1_linear_13_97" x1="13.7927" y1="7.21216" x2="26.6386" y2="24.2902" gradientUnits="userSpaceOnUse">
<stop stop-color="#88AE30"/>
<stop offset="1" stop-color="#67D8AB"/>
</linearGradient>
<linearGradient id="paint2_linear_13_97" x1="42.1218" y1="6.74986" x2="29.8492" y2="24.2444" gradientUnits="userSpaceOnUse">
<stop stop-color="#88AE30"/>
<stop offset="1" stop-color="#67D8AB"/>
</linearGradient>
<linearGradient id="paint3_linear_13_97" x1="51.3283" y1="33.5521" x2="30.8975" y2="27.2863" gradientUnits="userSpaceOnUse">
<stop stop-color="#88AE30"/>
<stop offset="1" stop-color="#67D8AB"/>
</linearGradient>
<linearGradient id="paint4_linear_13_97" x1="28.6729" y1="50.5768" x2="28.3186" y2="29.2097" gradientUnits="userSpaceOnUse">
<stop stop-color="#88AE30"/>
<stop offset="1" stop-color="#67D8AB"/>
</linearGradient>
</defs>
</svg>
